<?xml version="1.0" encoding="iso-8859-1"?>
<!-- Generator: Adobe Illustrator 19.0.0, SVG Export Plug-In . SVG Version: 6.00 Build 0)  -->
<svg version="1.1" id="Capa_1" xmlns="http://www.w3.org/2000/svg" xmlns:xlink="http://www.w3.org/1999/xlink" x="0px" y="0px"
	 viewBox="0 0 512.003 512.003" style="enable-background:new 0 0 512.003 512.003;" xml:space="preserve">
<g>
	<path style="fill:#63D3FD;" d="M503.468,256c0,136.67-110.797,247.467-247.467,247.467S8.535,392.67,8.535,256
		S119.331,8.533,256.001,8.533S503.468,119.33,503.468,256z"/>
	<g>
		<path style="fill:#FFE100;" d="M332.801,196.267c0,42.419-34.381,76.8-76.8,76.8s-76.8-34.381-76.8-76.8s34.381-76.8,76.8-76.8
			S332.801,153.847,332.801,196.267"/>
		<path style="fill:#FFE100;" d="M316.119,306.479c-17.331,11.213-37.939,17.783-60.117,17.783
			c-22.178,0-42.786-6.571-60.117-17.783c-35.456,20.719-59.349,59.085-59.349,103.117v63.138
			c35.422,19.567,76.134,30.729,119.467,30.729s84.045-11.162,119.467-30.729v-63.138
			C375.468,365.564,351.575,327.198,316.119,306.479"/>
	</g>
	<g>
		<path style="fill:#FFA800;" d="M256.001,119.467c-4.369,0-8.627,0.452-12.8,1.152c36.309,6.101,64,37.606,64,75.648
			s-27.691,69.547-64,75.648c4.173,0.7,8.431,1.152,12.8,1.152c42.419,0,76.8-34.381,76.8-76.8S298.421,119.467,256.001,119.467"/>
		<path style="fill:#FFA800;" d="M316.118,306.479c-4.48,2.893-9.182,5.47-14.063,7.714c28.996,21.777,47.812,56.346,47.812,95.403
			v63.138c-31.906,17.621-68.13,28.348-106.667,30.319c4.25,0.222,8.499,0.41,12.8,0.41c43.332,0,84.045-11.162,119.467-30.729
			v-63.138C375.467,365.564,351.582,327.198,316.118,306.479"/>
	</g>
	<path style="fill:#3DB9F9;" d="M256.001,8.533c-4.292,0-8.559,0.111-12.8,0.324C373.923,15.522,477.868,123.622,477.868,256
		S373.923,496.478,243.201,503.142c4.241,0.213,8.508,0.324,12.8,0.324c136.67,0,247.467-110.797,247.467-247.467
		S392.671,8.533,256.001,8.533"/>
	<path style="fill:#FFFFFF;" d="M256.001,8.533c4.292,0,8.559,0.111,12.8,0.324C138.079,15.522,34.135,123.622,34.135,256
		s103.945,240.478,234.667,247.142c-4.241,0.213-8.508,0.324-12.8,0.324C119.331,503.467,8.535,392.67,8.535,256
		S119.331,8.533,256.001,8.533"/>
	<g>
		<path d="M256.001,17.067C124.255,17.067,17.068,124.254,17.068,256s107.187,238.933,238.933,238.933S494.935,387.746,494.935,256
			S387.747,17.067,256.001,17.067 M256.001,512c-141.158,0-256-114.842-256-256s114.842-256,256-256s256,114.842,256,256
			S397.16,512,256.001,512"/>
		<path d="M256.001,128c-37.641,0-68.267,30.626-68.267,68.267s30.626,68.267,68.267,68.267c37.641,0,68.267-30.626,68.267-68.267
			S293.642,128,256.001,128 M256.001,281.6c-47.053,0-85.333-38.281-85.333-85.333s38.281-85.333,85.333-85.333
			s85.333,38.281,85.333,85.333S303.054,281.6,256.001,281.6"/>
		<path d="M145.068,467.638c34.048,17.869,72.294,27.298,110.933,27.298s76.885-9.429,110.933-27.298v-58.035
			c0-37.513-19.354-72.738-50.816-93.107c-36.548,21.367-83.686,21.367-120.235,0c-31.462,20.369-50.816,55.595-50.816,93.107
			V467.638z M256.001,512.003c-43.196,0-85.931-11-123.588-31.795c-2.722-1.51-4.412-4.369-4.412-7.475v-63.13
			c0-45.235,24.354-87.569,63.573-110.49c2.782-1.621,6.246-1.536,8.943,0.196c33.22,21.487,77.747,21.487,110.967,0
			c2.705-1.732,6.161-1.818,8.943-0.196c39.219,22.921,63.573,65.254,63.573,110.49v63.13c0,3.106-1.69,5.965-4.412,7.475
			C341.932,501.003,299.197,512.003,256.001,512.003L256.001,512.003z"/>
	</g>
</g>
<g>
</g>
<g>
</g>
<g>
</g>
<g>
</g>
<g>
</g>
<g>
</g>
<g>
</g>
<g>
</g>
<g>
</g>
<g>
</g>
<g>
</g>
<g>
</g>
<g>
</g>
<g>
</g>
<g>
</g>
</svg>
